<svg width="13" height="14" viewBox="0 0 13 14" fill="none" xmlns="http://www.w3.org/2000/svg">
<path fill-rule="evenodd" clip-rule="evenodd" d="M8.39195 0.0591163C8.51819 -0.00727482 8.66433 -0.0182201 8.79824 0.0286863C8.93215 0.0755928 9.04288 0.176512 9.10608 0.309261L10.6685 3.59623C11.6289 3.67389 12.2316 3.87251 12.6206 4.37803C13.2595 5.20985 13.0047 6.46132 12.495 8.965L12.1905 10.4584C11.8447 12.1557 11.6723 13.0039 11.0866 13.502C10.501 14 9.6761 14 8.02637 14H4.97393C3.3242 14 2.49933 14 1.9144 13.502C1.32805 13.0039 1.15484 12.1557 0.809847 10.4584L0.505313 8.965C-0.00437191 6.46132 -0.259925 5.20985 0.379667 4.37803C0.768674 3.87177 1.37135 3.67389 2.3318 3.59623L3.89422 0.309261C3.95795 0.177566 4.06858 0.077703 4.202 0.0314345C4.33542 -0.0148339 4.48082 -0.00375757 4.60651 0.0622499C4.7322 0.128257 4.82799 0.243846 4.87302 0.383825C4.91804 0.523804 4.90864 0.676828 4.84687 0.80955L3.54426 3.54994C3.88642 3.54745 4.2617 3.5462 4.67011 3.5462H8.33019C8.7386 3.54571 9.11388 3.54695 9.45604 3.54994L8.15343 0.80955C8.09037 0.676666 8.08007 0.522873 8.1248 0.382001C8.16953 0.241128 8.26562 0.125462 8.39195 0.0591163ZM3.12828 7.2797C3.12828 7.13117 3.18437 6.98873 3.28421 6.88371C3.38406 6.77868 3.51948 6.71968 3.66068 6.71968H9.33962C9.48082 6.71968 9.61624 6.77868 9.71609 6.88371C9.81593 6.98873 9.87202 7.13117 9.87202 7.2797C9.87202 7.42823 9.81593 7.57067 9.71609 7.6757C9.61624 7.78072 9.48082 7.83973 9.33962 7.83973H3.66068C3.51948 7.83973 3.38406 7.78072 3.28421 7.6757C3.18437 7.57067 3.12828 7.42823 3.12828 7.2797ZM5.08041 8.95978C4.93921 8.95978 4.80379 9.01878 4.70395 9.1238C4.60411 9.22883 4.54801 9.37127 4.54801 9.5198C4.54801 9.66833 4.60411 9.81077 4.70395 9.9158C4.80379 10.0208 4.93921 10.0798 5.08041 10.0798H7.91989C8.06109 10.0798 8.19651 10.0208 8.29635 9.9158C8.3962 9.81077 8.45229 9.66833 8.45229 9.5198C8.45229 9.37127 8.3962 9.22883 8.29635 9.1238C8.19651 9.01878 8.06109 8.95978 7.91989 8.95978H5.08041Z" fill="#1B75BC"/>
</svg>
