<svg width="32" height="32" viewBox="0 0 32 32" fill="none" xmlns="http://www.w3.org/2000/svg">
<path d="M25.5894 24.3669C22.625 25.625 19.0875 26.3156 16 26.3156C12.9125 26.3156 9.38312 25.6094 6.41 24.3669C3.43687 23.1244 3 22.0725 3 22.0725V24.46C3 26.4069 4.125 27.1875 7.2075 28.4819C9.57063 29.4744 12.6988 30 16 30C19.3012 30 22.4294 29.4744 24.7925 28.4819C27.875 27.1875 29 26.4069 29 24.46V22.0725C29 22.0725 28.5537 23.1094 25.5894 24.3669ZM3.98062 10.8263C4.6825 11.4413 5.71938 12.0444 6.98063 12.5712C9.63563 13.6812 13.0087 14.3444 16.0031 14.3444C18.9975 14.3444 22.3706 13.6812 25.0256 12.5712C26.2838 12.0444 27.3206 11.4413 28.0225 10.8263C28.4012 10.4944 28.7006 10.1937 28.8644 10.0231C28.9536 9.92993 29.0033 9.80587 29.0031 9.67688V8.04187C28.9506 6.2425 27.4587 4.64125 24.8025 3.53312C22.4269 2.54437 19.3025 2 16 2C12.6975 2 9.57313 2.54437 7.20375 3.53312C4.55313 4.63875 3.0625 6.23625 3.00312 8.03125V9.67688C3.00281 9.80578 3.0523 9.92983 3.14125 10.0231C3.3025 10.1937 3.60125 10.4944 3.98062 10.8263Z" fill="#CCCCCC"/>
<path d="M25.5894 13.8694C22.8125 15.0625 19.0875 15.8181 16 15.8181C12.9125 15.8181 9.19563 15.0513 6.41062 13.8694C3.62562 12.6875 3 11.575 3 11.575V14.535C3.005 15.005 3.34375 15.5475 3.98062 16.1056C4.68312 16.7206 5.71938 17.3244 6.98063 17.8506C9.6325 18.9613 13.0056 19.625 16 19.625C18.9944 19.625 22.3675 18.9625 25.0225 17.8519C26.2806 17.3256 27.3175 16.7219 28.0194 16.1069C28.66 15.5444 28.9994 15 29 14.5275V11.575C29 11.575 28.3669 12.6763 25.5894 13.8694Z" fill="#CCCCCC"/>
<path d="M25.5894 19.1487C22.625 20.375 19.0875 21.0975 16 21.0975C12.9125 21.0975 9.13313 20.2975 6.41062 19.1487C3.68812 18 3 16.8544 3 16.8544V19.745C3 20.2169 3.34 20.7625 3.98062 21.3237C4.6825 21.9387 5.71875 22.5425 6.98063 23.0687C9.63563 24.1794 13.0081 24.8419 16.0031 24.8419C18.9981 24.8419 22.3706 24.1794 25.0256 23.0687C26.2838 22.5419 27.3206 21.9387 28.0225 21.3237C28.6594 20.7656 28.9981 20.2231 29.0031 19.7531V16.8544C29.0031 16.8544 28.5544 17.9225 25.5894 19.1487Z" fill="#CCCCCC"/>
</svg>
