<svg width="11" height="11" viewBox="0 0 11 11" fill="none" xmlns="http://www.w3.org/2000/svg">
<path d="M10.447 5.50159C10.3011 5.50159 10.1613 5.55952 10.0582 5.66264C9.95506 5.76575 9.89713 5.90561 9.89713 6.05143V9.35048C9.89713 9.4963 9.8392 9.63616 9.73609 9.73927C9.63297 9.84239 9.49312 9.90032 9.34729 9.90032H1.64952C1.50369 9.90032 1.36384 9.84239 1.26073 9.73927C1.15761 9.63616 1.09968 9.4963 1.09968 9.35048V1.65271C1.09968 1.50688 1.15761 1.36703 1.26073 1.26391C1.36384 1.1608 1.50369 1.10287 1.64952 1.10287H4.94857C5.09439 1.10287 5.23425 1.04494 5.33736 0.941825C5.44048 0.83871 5.49841 0.698856 5.49841 0.553029C5.49841 0.407202 5.44048 0.267348 5.33736 0.164233C5.23425 0.0611176 5.09439 0.00318816 4.94857 0.00318816H1.64952C1.21204 0.00318816 0.792479 0.176977 0.483134 0.486322C0.173788 0.795667 0 1.21523 0 1.65271V9.35048C0 9.78796 0.173788 10.2075 0.483134 10.5169C0.792479 10.8262 1.21204 11 1.64952 11H9.34729C9.78477 11 10.2043 10.8262 10.5137 10.5169C10.823 10.2075 10.9968 9.78796 10.9968 9.35048V6.05143C10.9968 5.90561 10.9389 5.76575 10.8358 5.66264C10.7327 5.55952 10.5928 5.50159 10.447 5.50159ZM2.19936 5.91947V8.2508C2.19936 8.39662 2.25729 8.53648 2.36041 8.63959C2.46352 8.74271 2.60338 8.80064 2.7492 8.80064H5.08053C5.15289 8.80106 5.22462 8.78719 5.29161 8.75982C5.35861 8.73246 5.41954 8.69214 5.47091 8.64118L9.27581 4.83079L10.8374 3.30223C10.8889 3.25112 10.9298 3.1903 10.9577 3.1233C10.9856 3.0563 11 2.98443 11 2.91184C11 2.83926 10.9856 2.76739 10.9577 2.70039C10.9298 2.63339 10.8889 2.57257 10.8374 2.52146L8.50603 0.162642C8.45492 0.111106 8.39411 0.0702012 8.3271 0.0422865C8.2601 0.0143719 8.18823 0 8.11565 0C8.04306 0 7.97119 0.0143719 7.90419 0.0422865C7.83719 0.0702012 7.77637 0.111106 7.72526 0.162642L6.17471 1.71869L2.35882 5.52909C2.30786 5.58046 2.26754 5.64139 2.24018 5.70839C2.21281 5.77538 2.19894 5.84711 2.19936 5.91947ZM8.11565 1.3283L9.6717 2.88435L8.89092 3.66513L7.33487 2.10908L8.11565 1.3283ZM3.29904 6.14491L6.5596 2.88435L8.11565 4.4404L4.85509 7.70096H3.29904V6.14491Z" fill="#1B75BC"/>
</svg>
