<svg width="20" height="20" viewBox="0 0 20 20" fill="none" xmlns="http://www.w3.org/2000/svg">
<path d="M20 16.1311C20 16.33 19.921 16.5207 19.7803 16.6614C19.6397 16.802 19.4489 16.8811 19.25 16.8811H14.15C13.983 17.5039 13.6151 18.0543 13.1034 18.4468C12.5918 18.8393 11.9649 19.0521 11.32 19.0521C10.6751 19.0521 10.0482 18.8393 9.53658 18.4468C9.02491 18.0543 8.65704 17.5039 8.49 16.8811H0.75C0.551088 16.8811 0.360322 16.802 0.21967 16.6614C0.0790175 16.5207 0 16.33 0 16.1311C0 15.9321 0.0790175 15.7414 0.21967 15.6007C0.360322 15.4601 0.551088 15.3811 0.75 15.3811H8.49C8.65704 14.7582 9.02491 14.2078 9.53658 13.8153C10.0482 13.4228 10.6751 13.21 11.32 13.21C11.9649 13.21 12.5918 13.4228 13.1034 13.8153C13.6151 14.2078 13.983 14.7582 14.15 15.3811H19.25C19.4489 15.3811 19.6397 15.4601 19.7803 15.6007C19.921 15.7414 20 15.9321 20 16.1311ZM20 2.92105C20 3.11997 19.921 3.31073 19.7803 3.45138C19.6397 3.59204 19.4489 3.67105 19.25 3.67105H16.8C16.633 4.29393 16.2651 4.8443 15.7534 5.23682C15.2418 5.62935 14.6149 5.84211 13.97 5.84211C13.3251 5.84211 12.6982 5.62935 12.1866 5.23682C11.6749 4.8443 11.307 4.29393 11.14 3.67105H0.75C0.651509 3.67105 0.553982 3.65165 0.462987 3.61396C0.371993 3.57627 0.289314 3.52103 0.21967 3.45138C0.150026 3.38174 0.0947813 3.29906 0.0570903 3.20807C0.0193993 3.11707 0 3.01954 0 2.92105C0 2.82256 0.0193993 2.72504 0.0570903 2.63404C0.0947813 2.54305 0.150026 2.46037 0.21967 2.39072C0.289314 2.32108 0.371993 2.26583 0.462987 2.22814C0.553982 2.19045 0.651509 2.17105 0.75 2.17105H11.14C11.307 1.54818 11.6749 0.99781 12.1866 0.605283C12.6982 0.212757 13.3251 0 13.97 0C14.6149 0 15.2418 0.212757 15.7534 0.605283C16.2651 0.99781 16.633 1.54818 16.8 2.17105H19.25C19.3489 2.16971 19.447 2.18819 19.5386 2.2254C19.6302 2.26262 19.7134 2.31781 19.7833 2.38773C19.8532 2.45764 19.9084 2.54085 19.9457 2.63246C19.9829 2.72406 20.0013 2.82219 20 2.92105ZM20 9.52105C20.0013 9.61992 19.9829 9.71805 19.9457 9.80965C19.9084 9.90125 19.8532 9.98447 19.7833 10.0544C19.7134 10.1243 19.6302 10.1795 19.5386 10.2167C19.447 10.2539 19.3489 10.2724 19.25 10.2711H7.55C7.38296 10.8939 7.01509 11.4443 6.50342 11.8368C5.99176 12.2294 5.36489 12.4421 4.72 12.4421C4.07511 12.4421 3.44824 12.2294 2.93658 11.8368C2.42491 11.4443 2.05704 10.8939 1.89 10.2711H0.75C0.551088 10.2711 0.360322 10.192 0.21967 10.0514C0.0790175 9.91073 0 9.71997 0 9.52105C0 9.32214 0.0790175 9.13138 0.21967 8.99072C0.360322 8.85007 0.551088 8.77105 0.75 8.77105H1.89C2.05704 8.14818 2.42491 7.59781 2.93658 7.20528C3.44824 6.81276 4.07511 6.6 4.72 6.6C5.36489 6.6 5.99176 6.81276 6.50342 7.20528C7.01509 7.59781 7.38296 8.14818 7.55 8.77105H19.25C19.4489 8.77105 19.6397 8.85007 19.7803 8.99072C19.921 9.13138 20 9.32214 20 9.52105Z" fill="black"/>
</svg>
