<svg width="12" height="14" viewBox="0 0 12 14" fill="none" xmlns="http://www.w3.org/2000/svg">
<path d="M3.75 1.75C3.55109 1.75 3.36032 1.82902 3.21967 1.96967C3.07902 2.11032 3 2.30109 3 2.5C3 2.69891 3.07902 2.88968 3.21967 3.03033C3.36032 3.17098 3.55109 3.25 3.75 3.25C3.94891 3.25 4.13968 3.17098 4.28033 3.03033C4.42098 2.88968 4.5 2.69891 4.5 2.5C4.5 2.30109 4.42098 2.11032 4.28033 1.96967C4.13968 1.82902 3.94891 1.75 3.75 1.75ZM1.6275 1.75C1.78245 1.31085 2.0698 0.930574 2.44995 0.661591C2.8301 0.392608 3.28432 0.248161 3.75 0.248161C4.21568 0.248161 4.6699 0.392608 5.05005 0.661591C5.4302 0.930574 5.71755 1.31085 5.8725 1.75H11.25C11.4489 1.75 11.6397 1.82902 11.7803 1.96967C11.921 2.11032 12 2.30109 12 2.5C12 2.69891 11.921 2.88968 11.7803 3.03033C11.6397 3.17098 11.4489 3.25 11.25 3.25H5.8725C5.71755 3.68915 5.4302 4.06942 5.05005 4.33841C4.6699 4.60739 4.21568 4.75184 3.75 4.75184C3.28432 4.75184 2.8301 4.60739 2.44995 4.33841C2.0698 4.06942 1.78245 3.68915 1.6275 3.25H0.75C0.551088 3.25 0.360322 3.17098 0.21967 3.03033C0.0790178 2.88968 0 2.69891 0 2.5C0 2.30109 0.0790178 2.11032 0.21967 1.96967C0.360322 1.82902 0.551088 1.75 0.75 1.75H1.6275ZM8.25 6.25C8.05109 6.25 7.86032 6.32902 7.71967 6.46967C7.57902 6.61032 7.5 6.80109 7.5 7C7.5 7.19891 7.57902 7.38968 7.71967 7.53033C7.86032 7.67098 8.05109 7.75 8.25 7.75C8.44891 7.75 8.63968 7.67098 8.78033 7.53033C8.92098 7.38968 9 7.19891 9 7C9 6.80109 8.92098 6.61032 8.78033 6.46967C8.63968 6.32902 8.44891 6.25 8.25 6.25ZM6.1275 6.25C6.28245 5.81085 6.5698 5.43057 6.94995 5.16159C7.3301 4.89261 7.78432 4.74816 8.25 4.74816C8.71568 4.74816 9.1699 4.89261 9.55005 5.16159C9.9302 5.43057 10.2175 5.81085 10.3725 6.25H11.25C11.4489 6.25 11.6397 6.32902 11.7803 6.46967C11.921 6.61032 12 6.80109 12 7C12 7.19891 11.921 7.38968 11.7803 7.53033C11.6397 7.67098 11.4489 7.75 11.25 7.75H10.3725C10.2175 8.18915 9.9302 8.56942 9.55005 8.83841C9.1699 9.10739 8.71568 9.25184 8.25 9.25184C7.78432 9.25184 7.3301 9.10739 6.94995 8.83841C6.5698 8.56942 6.28245 8.18915 6.1275 7.75H0.75C0.551088 7.75 0.360322 7.67098 0.21967 7.53033C0.0790178 7.38968 0 7.19891 0 7C0 6.80109 0.0790178 6.61032 0.21967 6.46967C0.360322 6.32902 0.551088 6.25 0.75 6.25H6.1275ZM3.75 10.75C3.55109 10.75 3.36032 10.829 3.21967 10.9697C3.07902 11.1103 3 11.3011 3 11.5C3 11.6989 3.07902 11.8897 3.21967 12.0303C3.36032 12.171 3.55109 12.25 3.75 12.25C3.94891 12.25 4.13968 12.171 4.28033 12.0303C4.42098 11.8897 4.5 11.6989 4.5 11.5C4.5 11.3011 4.42098 11.1103 4.28033 10.9697C4.13968 10.829 3.94891 10.75 3.75 10.75ZM1.6275 10.75C1.78245 10.3108 2.0698 9.93057 2.44995 9.66159C2.8301 9.39261 3.28432 9.24816 3.75 9.24816C4.21568 9.24816 4.6699 9.39261 5.05005 9.66159C5.4302 9.93057 5.71755 10.3108 5.8725 10.75H11.25C11.4489 10.75 11.6397 10.829 11.7803 10.9697C11.921 11.1103 12 11.3011 12 11.5C12 11.6989 11.921 11.8897 11.7803 12.0303C11.6397 12.171 11.4489 12.25 11.25 12.25H5.8725C5.71755 12.6891 5.4302 13.0694 5.05005 13.3384C4.6699 13.6074 4.21568 13.7518 3.75 13.7518C3.28432 13.7518 2.8301 13.6074 2.44995 13.3384C2.0698 13.0694 1.78245 12.6891 1.6275 12.25H0.75C0.551088 12.25 0.360322 12.171 0.21967 12.0303C0.0790178 11.8897 0 11.6989 0 11.5C0 11.3011 0.0790178 11.1103 0.21967 10.9697C0.360322 10.829 0.551088 10.75 0.75 10.75H1.6275Z" fill="#333333"/>
</svg>
