<svg width="34" height="33" viewBox="0 0 34 33" fill="none" xmlns="http://www.w3.org/2000/svg">
<path d="M32 16.5C32 7.93935 25.0606 1 16.5 1C7.93935 1 1 7.93935 1 16.5C1 25.0606 7.93935 32 16.5 32" stroke="#59A5F5" stroke-width="1.5" stroke-linecap="round" stroke-linejoin="round"/>
<path d="M18.0498 1.07745C18.0498 1.07745 22.6998 7.19995 22.6998 16.5M14.9498 31.9225C14.9498 31.9225 10.2998 25.8 10.2998 16.5C10.2998 7.19995 14.9498 1.07745 14.9498 1.07745M1.97632 21.925H16.4998M1.97632 11.075H31.0233" stroke="#59A5F5" stroke-width="1.5" stroke-linecap="round" stroke-linejoin="round"/>
<path d="M31.8124 25.6713C32.5781 26.1425 32.53 27.288 31.7426 27.3779L27.7638 27.8289L25.9797 31.4125C25.6263 32.124 24.5336 31.7752 24.3522 30.8948L22.407 21.415C22.2535 20.671 22.9231 20.2029 23.5695 20.6013L31.8124 25.6713Z" stroke="#59A5F5" stroke-width="1.5"/>
</svg>
